<svg aria-roledescription="er" role="graphics-document document" viewBox="-37.855276107788086 0 477.74591064453125 640" style="max-width: 477.746px; background-color: transparent;" xmlns:xlink="http://www.w3.org/1999/xlink" xmlns="http://www.w3.org/2000/svg" width="100%" id="my-svg"><style>#my-svg{font-family:"trebuchet ms",verdana,arial,sans-serif;font-size:16px;fill:#000000;}#my-svg .error-icon{fill:#552222;}#my-svg .error-text{fill:#552222;stroke:#552222;}#my-svg .edge-thickness-normal{stroke-width:2px;}#my-svg .edge-thickness-thick{stroke-width:3.5px;}#my-svg .edge-pattern-solid{stroke-dasharray:0;}#my-svg .edge-pattern-dashed{stroke-dasharray:3;}#my-svg .edge-pattern-dotted{stroke-dasharray:2;}#my-svg .marker{fill:#666;stroke:#666;}#my-svg .marker.cross{stroke:#666;}#my-svg svg{font-family:"trebuchet ms",verdana,arial,sans-serif;font-size:16px;}#my-svg .entityBox{fill:#eee;stroke:#999;}#my-svg .attributeBoxOdd{fill:#ffffff;stroke:#999;}#my-svg .attributeBoxEven{fill:#f2f2f2;stroke:#999;}#my-svg .relationshipLabelBox{fill:hsl(-160, 0%, 93.3333333333%);opacity:0.7;background-color:hsl(-160, 0%, 93.3333333333%);}#my-svg .relationshipLabelBox rect{opacity:0.5;}#my-svg .relationshipLine{stroke:#666;}#my-svg .entityTitleText{text-anchor:middle;font-size:18px;fill:#000000;}#my-svg #MD_PARENT_START{fill:#f5f5f5!important;stroke:#666!important;stroke-width:1;}#my-svg #MD_PARENT_END{fill:#f5f5f5!important;stroke:#666!important;stroke-width:1;}#my-svg :root{--mermaid-font-family:"trebuchet ms",verdana,arial,sans-serif;}</style><g/><defs><marker orient="auto" markerHeight="240" markerWidth="190" refY="7" refX="0" id="MD_PARENT_START"><path d="M 18,7 L9,13 L1,7 L9,1 Z"/></marker></defs><defs><marker orient="auto" markerHeight="28" markerWidth="20" refY="7" refX="19" id="MD_PARENT_END"><path d="M 18,7 L9,13 L1,7 L9,1 Z"/></marker></defs><defs><marker orient="auto" markerHeight="18" markerWidth="18" refY="9" refX="0" id="ONLY_ONE_START"><path d="M9,0 L9,18 M15,0 L15,18" fill="none" stroke="gray"/></marker></defs><defs><marker orient="auto" markerHeight="18" markerWidth="18" refY="9" refX="18" id="ONLY_ONE_END"><path d="M3,0 L3,18 M9,0 L9,18" fill="none" stroke="gray"/></marker></defs><defs><marker orient="auto" markerHeight="18" markerWidth="30" refY="9" refX="0" id="ZERO_OR_ONE_START"><circle r="6" cy="9" cx="21" fill="white" stroke="gray"/><path d="M9,0 L9,18" fill="none" stroke="gray"/></marker></defs><defs><marker orient="auto" markerHeight="18" markerWidth="30" refY="9" refX="30" id="ZERO_OR_ONE_END"><circle r="6" cy="9" cx="9" fill="white" stroke="gray"/><path d="M21,0 L21,18" fill="none" stroke="gray"/></marker></defs><defs><marker orient="auto" markerHeight="36" markerWidth="45" refY="18" refX="18" id="ONE_OR_MORE_START"><path d="M0,18 Q 18,0 36,18 Q 18,36 0,18 M42,9 L42,27" fill="none" stroke="gray"/></marker></defs><defs><marker orient="auto" markerHeight="36" markerWidth="45" refY="18" refX="27" id="ONE_OR_MORE_END"><path d="M3,9 L3,27 M9,18 Q27,0 45,18 Q27,36 9,18" fill="none" stroke="gray"/></marker></defs><defs><marker orient="auto" markerHeight="36" markerWidth="57" refY="18" refX="18" id="ZERO_OR_MORE_START"><circle r="6" cy="18" cx="48" fill="white" stroke="gray"/><path d="M0,18 Q18,0 36,18 Q18,36 0,18" fill="none" stroke="gray"/></marker></defs><defs><marker orient="auto" markerHeight="36" markerWidth="57" refY="18" refX="39" id="ZERO_OR_MORE_END"><circle r="6" cy="18" cx="9" fill="white" stroke="gray"/><path d="M21,18 Q39,0 57,18 Q39,36 21,18" fill="none" stroke="gray"/></marker></defs><path style="stroke: gray; fill: none;" marker-start="url(#ZERO_OR_MORE_START)" marker-end="url(#ZERO_OR_MORE_END)" d="M95.422,86.504L78.615,96.253C61.807,106.002,28.193,125.501,11.385,149.834C-5.422,174.167,-5.422,203.333,-5.422,232.5C-5.422,261.667,-5.422,290.833,1.761,313.75C8.944,336.667,23.31,353.333,30.493,361.667L37.676,370" class="er relationshipLine"/><path style="stroke: gray; fill: none;" marker-start="url(#ZERO_OR_MORE_START)" marker-end="url(#ZERO_OR_MORE_END)" d="M145.422,95L145.422,103.333C145.422,111.667,145.422,128.333,145.422,145C145.422,161.667,145.422,178.333,145.422,186.667L145.422,195" class="er relationshipLine"/><path style="stroke: gray; fill: none;" marker-start="url(#ONLY_ONE_START)" marker-end="url(#ZERO_OR_MORE_END)" d="M195.422,78.49L221.828,89.575C248.234,100.66,301.047,122.83,327.453,142.248C353.859,161.667,353.859,178.333,353.859,186.667L353.859,195" class="er relationshipLine"/><path style="stroke: gray; fill: none;" marker-start="url(#ZERO_OR_MORE_START)" marker-end="url(#ZERO_OR_MORE_END)" d="M145.422,270L145.422,278.333C145.422,286.667,145.422,303.333,138.239,320C131.056,336.667,116.69,353.333,109.507,361.667L102.324,370" class="er relationshipLine"/><path style="stroke: gray; fill: none;" marker-start="url(#ONLY_ONE_START)" marker-end="url(#ZERO_OR_MORE_END)" d="M353.859,270L353.859,278.333C353.859,286.667,353.859,303.333,353.859,320C353.859,336.667,353.859,353.333,353.859,361.667L353.859,370" class="er relationshipLine"/><path style="stroke: gray; fill: none;" marker-start="url(#ONLY_ONE_START)" marker-end="url(#ZERO_OR_MORE_END)" d="M353.859,445L353.859,453.333C353.859,461.667,353.859,478.333,353.859,495C353.859,511.667,353.859,528.333,353.859,536.667L353.859,545" class="er relationshipLine"/><g transform="translate(95.421875,20 )" id="entity-GitRepo-155ec3fc-a1ce-5503-bc46-10dc55de1740"><rect height="75" width="100" y="0" x="0" class="er entityBox"/><text style="dominant-baseline: middle; text-anchor: middle; font-size: 12px;" transform="translate(50,37.5)" y="0" x="0" id="text-entity-GitRepo-155ec3fc-a1ce-5503-bc46-10dc55de1740" class="er entityLabel">GitRepo</text></g><g transform="translate(20,370 )" id="entity-Cluster-46db484d-219f-5f91-a853-505207a5f0fd"><rect height="75" width="100" y="0" x="0" class="er entityBox"/><text style="dominant-baseline: middle; text-anchor: middle; font-size: 12px;" transform="translate(50,37.5)" y="0" x="0" id="text-entity-Cluster-46db484d-219f-5f91-a853-505207a5f0fd" class="er entityLabel">Cluster</text></g><g transform="translate(94.578125,195 )" id="entity-ClusterGroup-7e8949e8-bd1a-5b24-bdb4-5c21826d975b"><rect height="75" width="101.6875" y="0" x="0" class="er entityBox"/><text style="dominant-baseline: middle; text-anchor: middle; font-size: 12px;" transform="translate(50.84375,37.5)" y="0" x="0" id="text-entity-ClusterGroup-7e8949e8-bd1a-5b24-bdb4-5c21826d975b" class="er entityLabel">ClusterGroup</text></g><g transform="translate(303.859375,195 )" id="entity-Bundle-1c8e73c3-99ec-5670-896c-7b3764cd8705"><rect height="75" width="100" y="0" x="0" class="er entityBox"/><text style="dominant-baseline: middle; text-anchor: middle; font-size: 12px;" transform="translate(50,37.5)" y="0" x="0" id="text-entity-Bundle-1c8e73c3-99ec-5670-896c-7b3764cd8705" class="er entityLabel">Bundle</text></g><g transform="translate(287.828125,370 )" id="entity-BundleDeployment-2be1ce70-74bd-5458-92e7-32c50dbd21fc"><rect height="75" width="132.0625" y="0" x="0" class="er entityBox"/><text style="dominant-baseline: middle; text-anchor: middle; font-size: 12px;" transform="translate(66.03125,37.5)" y="0" x="0" id="text-entity-BundleDeployment-2be1ce70-74bd-5458-92e7-32c50dbd21fc" class="er entityLabel">BundleDeployment</text></g><g transform="translate(303.859375,545 )" id="entity-Resource-28c59259-5a9e-509b-b8a7-0e5c9cbb4b48"><rect height="75" width="100" y="0" x="0" class="er entityBox"/><text style="dominant-baseline: middle; text-anchor: middle; font-size: 12px;" transform="translate(50,37.5)" y="0" x="0" id="text-entity-Resource-28c59259-5a9e-509b-b8a7-0e5c9cbb4b48" class="er entityLabel">Resource</text></g><rect height="14" width="25.359375" y="204.15989685058594" x="-17.855276107788086" class="er relationshipLabelBox"/><text style="text-anchor: middle; dominant-baseline: middle; font-size: 12px;" y="211.15989685058594" x="-5.175588607788086" id="rel1" class="er relationshipLabel">uses</text><rect height="14" width="25.359375" y="138" x="132.7423095703125" class="er relationshipLabelBox"/><text style="text-anchor: middle; dominant-baseline: middle; font-size: 12px;" y="145" x="145.4219970703125" id="rel2" class="er relationshipLabel">uses</text><rect height="14" width="39.359375" y="113.80789947509766" x="271.3644714355469" class="er relationshipLabelBox"/><text style="text-anchor: middle; dominant-baseline: middle; font-size: 12px;" y="120.80789947509766" x="291.0441589355469" id="rel3" class="er relationshipLabel">creates</text><rect height="14" width="25.359375" y="317.9176330566406" x="123.2408447265625" class="er relationshipLabelBox"/><text style="text-anchor: middle; dominant-baseline: middle; font-size: 12px;" y="324.9176330566406" x="135.9205322265625" id="rel4" class="er relationshipLabel">uses</text><rect height="14" width="48.03125" y="313" x="329.8433837890625" class="er relationshipLabelBox"/><text style="text-anchor: middle; dominant-baseline: middle; font-size: 12px;" y="320" x="353.8590087890625" id="rel5" class="er relationshipLabel">results in</text><rect height="14" width="39.359375" y="488" x="334.1793212890625" class="er relationshipLabelBox"/><text style="text-anchor: middle; dominant-baseline: middle; font-size: 12px;" y="495" x="353.8590087890625" id="rel6" class="er relationshipLabel">creates</text></svg>