<svg aria-roledescription="er" role="graphics-document document" viewBox="-37.874868392944336 0 477.12017822265625 640" style="max-width: 477.12px; background-color: rgb(255, 255, 255);" xmlns:xlink="http://www.w3.org/1999/xlink" xmlns="http://www.w3.org/2000/svg" width="100%" id="mermaid-1722430368142"><style>#mermaid-1722430368142{font-family:"trebuchet ms",verdana,arial,sans-serif;font-size:16px;fill:#333;}#mermaid-1722430368142 .error-icon{fill:hsl(220.5882352941, 100%, 98.3333333333%);}#mermaid-1722430368142 .error-text{fill:rgb(8.5000000002, 5.7500000001, 0);stroke:rgb(8.5000000002, 5.7500000001, 0);}#mermaid-1722430368142 .edge-thickness-normal{stroke-width:2px;}#mermaid-1722430368142 .edge-thickness-thick{stroke-width:3.5px;}#mermaid-1722430368142 .edge-pattern-solid{stroke-dasharray:0;}#mermaid-1722430368142 .edge-pattern-dashed{stroke-dasharray:3;}#mermaid-1722430368142 .edge-pattern-dotted{stroke-dasharray:2;}#mermaid-1722430368142 .marker{fill:#0b0b0b;stroke:#0b0b0b;}#mermaid-1722430368142 .marker.cross{stroke:#0b0b0b;}#mermaid-1722430368142 svg{font-family:"trebuchet ms",verdana,arial,sans-serif;font-size:16px;}#mermaid-1722430368142 .entityBox{fill:#fff4dd;stroke:hsl(40.5882352941, 60%, 83.3333333333%);}#mermaid-1722430368142 .attributeBoxOdd{fill:#ffffff;stroke:hsl(40.5882352941, 60%, 83.3333333333%);}#mermaid-1722430368142 .attributeBoxEven{fill:#f2f2f2;stroke:hsl(40.5882352941, 60%, 83.3333333333%);}#mermaid-1722430368142 .relationshipLabelBox{fill:hsl(220.5882352941, 100%, 98.3333333333%);opacity:0.7;background-color:hsl(220.5882352941, 100%, 98.3333333333%);}#mermaid-1722430368142 .relationshipLabelBox rect{opacity:0.5;}#mermaid-1722430368142 .relationshipLine{stroke:#0b0b0b;}#mermaid-1722430368142 .entityTitleText{text-anchor:middle;font-size:18px;fill:#333;}#mermaid-1722430368142 #MD_PARENT_START{fill:#f5f5f5!important;stroke:#0b0b0b!important;stroke-width:1;}#mermaid-1722430368142 #MD_PARENT_END{fill:#f5f5f5!important;stroke:#0b0b0b!important;stroke-width:1;}#mermaid-1722430368142 :root{--mermaid-font-family:"trebuchet ms",verdana,arial,sans-serif;}</style><g/><defs><marker orient="auto" markerHeight="240" markerWidth="190" refY="7" refX="0" id="MD_PARENT_START"><path d="M 18,7 L9,13 L1,7 L9,1 Z"/></marker></defs><defs><marker orient="auto" markerHeight="28" markerWidth="20" refY="7" refX="19" id="MD_PARENT_END"><path d="M 18,7 L9,13 L1,7 L9,1 Z"/></marker></defs><defs><marker orient="auto" markerHeight="18" markerWidth="18" refY="9" refX="0" id="ONLY_ONE_START"><path d="M9,0 L9,18 M15,0 L15,18" fill="none" stroke="gray"/></marker></defs><defs><marker orient="auto" markerHeight="18" markerWidth="18" refY="9" refX="18" id="ONLY_ONE_END"><path d="M3,0 L3,18 M9,0 L9,18" fill="none" stroke="gray"/></marker></defs><defs><marker orient="auto" markerHeight="18" markerWidth="30" refY="9" refX="0" id="ZERO_OR_ONE_START"><circle r="6" cy="9" cx="21" fill="white" stroke="gray"/><path d="M9,0 L9,18" fill="none" stroke="gray"/></marker></defs><defs><marker orient="auto" markerHeight="18" markerWidth="30" refY="9" refX="30" id="ZERO_OR_ONE_END"><circle r="6" cy="9" cx="9" fill="white" stroke="gray"/><path d="M21,0 L21,18" fill="none" stroke="gray"/></marker></defs><defs><marker orient="auto" markerHeight="36" markerWidth="45" refY="18" refX="18" id="ONE_OR_MORE_START"><path d="M0,18 Q 18,0 36,18 Q 18,36 0,18 M42,9 L42,27" fill="none" stroke="gray"/></marker></defs><defs><marker orient="auto" markerHeight="36" markerWidth="45" refY="18" refX="27" id="ONE_OR_MORE_END"><path d="M3,9 L3,27 M9,18 Q27,0 45,18 Q27,36 9,18" fill="none" stroke="gray"/></marker></defs><defs><marker orient="auto" markerHeight="36" markerWidth="57" refY="18" refX="18" id="ZERO_OR_MORE_START"><circle r="6" cy="18" cx="48" fill="white" stroke="gray"/><path d="M0,18 Q18,0 36,18 Q18,36 0,18" fill="none" stroke="gray"/></marker></defs><defs><marker orient="auto" markerHeight="36" markerWidth="57" refY="18" refX="39" id="ZERO_OR_MORE_END"><circle r="6" cy="18" cx="9" fill="white" stroke="gray"/><path d="M21,18 Q39,0 57,18 Q39,36 21,18" fill="none" stroke="gray"/></marker></defs><path style="stroke: gray; fill: none;" marker-start="url(#ONLY_ONE_START)" marker-end="url(#ZERO_OR_MORE_END)" d="M95.32769012451172,86.53978376996827L78.55179278055827,96.28315314164023C61.77589543660482,106.02652251331217,28.224100748697918,125.5132612566561,11.448203404744467,149.83996396166137C-5.327693939208984,174.16666666666666,-5.327693939208984,203.33333333333334,-5.327693939208984,232.5C-5.327693939208984,261.6666666666667,-5.327693939208984,290.8333333333333,1.846371786934989,313.75C9.020437513078962,336.6666666666667,23.368568965366908,353.3333333333333,30.542634691510884,361.6666666666667L37.716700417654856,370" class="er relationshipLine"/><path style="stroke: gray; fill: none;" marker-start="url(#ONLY_ONE_START)" marker-end="url(#ZERO_OR_MORE_END)" d="M145.32768630981445,95L145.32768630981445,103.33333333333333C145.32768630981445,111.66666666666667,145.32768630981445,128.33333333333334,145.32768630981445,145C145.32768630981445,161.66666666666666,145.32768630981445,178.33333333333334,145.32768630981445,186.66666666666666L145.32768630981445,195" class="er relationshipLine"/><path style="stroke: gray; fill: none;" marker-start="url(#ONLY_ONE_START)" marker-end="url(#ZERO_OR_MORE_END)" d="M195.3276824951172,78.51435675464634L221.69284756978354,89.59529729553861C248.05801264444986,100.6762378364309,300.78834279378253,122.83811891821544,327.1535078684489,142.25239279244104C353.51867294311523,161.66666666666666,353.51867294311523,178.33333333333334,353.51867294311523,186.66666666666666L353.51867294311523,195" class="er relationshipLine"/><path style="stroke: gray; fill: none;" marker-start="url(#ONLY_ONE_START)" marker-end="url(#ZERO_OR_MORE_END)" d="M145.32768630981445,270L145.32768630981445,278.3333333333333C145.32768630981445,286.6666666666667,145.32768630981445,303.3333333333333,138.15362058367046,320C130.9795548575265,336.6666666666667,116.63142340523855,353.3333333333333,109.45735767909457,361.6666666666667L102.2832919529506,370" class="er relationshipLine"/><path style="stroke: gray; fill: none;" marker-start="url(#ONLY_ONE_START)" marker-end="url(#ZERO_OR_MORE_END)" d="M353.51867294311523,270L353.51867294311523,278.3333333333333C353.51867294311523,286.6666666666667,353.51867294311523,303.3333333333333,353.51867294311523,320C353.51867294311523,336.6666666666667,353.51867294311523,353.3333333333333,353.51867294311523,361.6666666666667L353.51867294311523,370" class="er relationshipLine"/><path style="stroke: gray; fill: none;" marker-start="url(#ONLY_ONE_START)" marker-end="url(#ZERO_OR_MORE_END)" d="M353.51867294311523,445L353.51867294311523,453.3333333333333C353.51867294311523,461.6666666666667,353.51867294311523,478.3333333333333,353.51867294311523,495C353.51867294311523,511.6666666666667,353.51867294311523,528.3333333333334,353.51867294311523,536.6666666666666L353.51867294311523,545" class="er relationshipLine"/><g transform="translate(95.32769012451172,20 )" id="entity-GitRepo-155ec3fc-a1ce-5503-bc46-10dc55de1740"><rect height="75" width="100" y="0" x="0" class="er entityBox"/><text style="dominant-baseline: middle; text-anchor: middle; font-size: 12px;" transform="translate(50,37.5)" y="0" x="0" id="text-entity-GitRepo-155ec3fc-a1ce-5503-bc46-10dc55de1740" class="er entityLabel">GitRepo</text></g><g transform="translate(20,370 )" id="entity-Cluster-46db484d-219f-5f91-a853-505207a5f0fd"><rect height="75" width="100" y="0" x="0" class="er entityBox"/><text style="dominant-baseline: middle; text-anchor: middle; font-size: 12px;" transform="translate(50,37.5)" y="0" x="0" id="text-entity-Cluster-46db484d-219f-5f91-a853-505207a5f0fd" class="er entityLabel">Cluster</text></g><g transform="translate(94.67230606079102,195 )" id="entity-ClusterGroup-7e8949e8-bd1a-5b24-bdb4-5c21826d975b"><rect height="75" width="101.31076049804688" y="0" x="0" class="er entityBox"/><text style="dominant-baseline: middle; text-anchor: middle; font-size: 12px;" transform="translate(50.65538024902344,37.5)" y="0" x="0" id="text-entity-ClusterGroup-7e8949e8-bd1a-5b24-bdb4-5c21826d975b" class="er entityLabel">ClusterGroup</text></g><g transform="translate(303.5186767578125,195 )" id="entity-Bundle-1c8e73c3-99ec-5670-896c-7b3764cd8705"><rect height="75" width="100" y="0" x="0" class="er entityBox"/><text style="dominant-baseline: middle; text-anchor: middle; font-size: 12px;" transform="translate(50,37.5)" y="0" x="0" id="text-entity-Bundle-1c8e73c3-99ec-5670-896c-7b3764cd8705" class="er entityLabel">Bundle</text></g><g transform="translate(287.7920722961426,370 )" id="entity-BundleDeployment-2be1ce70-74bd-5458-92e7-32c50dbd21fc"><rect height="75" width="131.4532012939453" y="0" x="0" class="er entityBox"/><text style="dominant-baseline: middle; text-anchor: middle; font-size: 12px;" transform="translate(65.72660064697266,37.5)" y="0" x="0" id="text-entity-BundleDeployment-2be1ce70-74bd-5458-92e7-32c50dbd21fc" class="er entityLabel">BundleDeployment</text></g><g transform="translate(303.5186767578125,545 )" id="entity-Resource-28c59259-5a9e-509b-b8a7-0e5c9cbb4b48"><rect height="75" width="100" y="0" x="0" class="er entityBox"/><text style="dominant-baseline: middle; text-anchor: middle; font-size: 12px;" transform="translate(50,37.5)" y="0" x="0" id="text-entity-Resource-28c59259-5a9e-509b-b8a7-0e5c9cbb4b48" class="er entityLabel">Resource</text></g><rect height="13.888888359069824" width="25.581571578979492" y="204.28225564956665" x="-17.874869346618652" class="er relationshipLabelBox"/><text style="text-anchor: middle; dominant-baseline: middle; font-size: 12px;" y="211.22669982910156" x="-5.084083557128906" id="rel21" class="er relationshipLabel">uses</text><rect height="13.888888359069824" width="25.581571578979492" y="138.0555558204651" x="132.53689670562744" class="er relationshipLabelBox"/><text style="text-anchor: middle; dominant-baseline: middle; font-size: 12px;" y="145" x="145.3276824951172" id="rel22" class="er relationshipLabel">uses</text><rect height="13.888888359069824" width="39.57383728027344" y="113.88715982437134" x="271.0418167114258" class="er relationshipLabelBox"/><text style="text-anchor: middle; dominant-baseline: middle; font-size: 12px;" y="120.83160400390625" x="290.8287353515625" id="rel23" class="er relationshipLabel">creates</text><rect height="13.888888359069824" width="44.913150787353516" y="317.9635148048401" x="113.3863353729248" class="er relationshipLabelBox"/><text style="text-anchor: middle; dominant-baseline: middle; font-size: 12px;" y="324.907958984375" x="135.84291076660156" id="rel24" class="er relationshipLabel">contains</text><rect height="13.888888359069824" width="47.98176956176758" y="313.0555558204651" x="329.5277919769287" class="er relationshipLabelBox"/><text style="text-anchor: middle; dominant-baseline: middle; font-size: 12px;" y="320" x="353.5186767578125" id="rel25" class="er relationshipLabel">results in</text><rect height="13.888888359069824" width="39.57383728027344" y="488.0555558204651" x="333.7317581176758" class="er relationshipLabelBox"/><text style="text-anchor: middle; dominant-baseline: middle; font-size: 12px;" y="495" x="353.5186767578125" id="rel26" class="er relationshipLabel">creates</text></svg>